<?xml version="1.0" encoding="UTF-8" standalone="no"?><!DOCTYPE svg PUBLIC "-//W3C//DTD SVG 1.1//EN" "http://www.w3.org/Graphics/SVG/1.1/DTD/svg11.dtd"><!-- Generated by graphviz version 2.40.1 (20161225.0304)
 --><!-- Title: linkedlist Pages: 1 --><svg xmlns="http://www.w3.org/2000/svg" xmlns:xlink="http://www.w3.org/1999/xlink" width="310pt" height="279pt" viewBox="0.00 0.00 310.00 279.12">
<g id="graph0" class="graph" transform="scale(1 1) rotate(0) translate(4 275.1216)">
<title>linkedlist</title>
<polygon fill="#ffffff" stroke="transparent" points="-4,4 -4,-275.1216 306,-275.1216 306,4 -4,4"/>
<!-- A -->
<g id="node1" class="node">
<title>A</title>
<polygon fill="none" stroke="#a020f0" points="120,-234.6216 120,-270.6216 182,-270.6216 182,-234.6216 120,-234.6216"/>
<text text-anchor="middle" x="129.75" y="-248.4216" font-family="Times,serif" font-size="14.00" fill="#000000"> </text>
<polyline fill="none" stroke="#a020f0" points="139.5,-234.6216 139.5,-270.6216 "/>
<text text-anchor="middle" x="151" y="-248.4216" font-family="Times,serif" font-size="14.00" fill="#000000">1</text>
<polyline fill="none" stroke="#a020f0" points="162.5,-234.6216 162.5,-270.6216 "/>
<text text-anchor="middle" x="172.25" y="-248.4216" font-family="Times,serif" font-size="14.00" fill="#000000"> </text>
</g>
<!-- B -->
<g id="node2" class="node">
<title>B</title>
<polygon fill="none" stroke="#a020f0" points="181,-161.6216 181,-197.6216 243,-197.6216 243,-161.6216 181,-161.6216"/>
<text text-anchor="middle" x="190.75" y="-175.4216" font-family="Times,serif" font-size="14.00" fill="#000000"> </text>
<polyline fill="none" stroke="#a020f0" points="200.5,-161.6216 200.5,-197.6216 "/>
<text text-anchor="middle" x="212" y="-175.4216" font-family="Times,serif" font-size="14.00" fill="#000000">2</text>
<polyline fill="none" stroke="#a020f0" points="223.5,-161.6216 223.5,-197.6216 "/>
<text text-anchor="middle" x="233.25" y="-175.4216" font-family="Times,serif" font-size="14.00" fill="#000000"> </text>
</g>
<!-- A&#45;&gt;B -->
<g id="edge1" class="edge">
<title>A:C-&gt;B:data</title>
<path fill="none" stroke="#0000ff" d="M175.5814,-245.2283C177.3628,-241.7646 179.6375,-237.6366 182,-234.1216 191.4256,-220.0975 205.1075,-218.6059 210.0925,-207.6168"/>
<ellipse fill="#0000ff" stroke="#0000ff" cx="173.7439" cy="-249.0217" rx="4" ry="4"/>
<polygon fill="#0000ff" stroke="#0000ff" points="212,-197.6216 214.5456,-208.2879 211.0627,-202.5329 210.1253,-207.4443 210.1253,-207.4443 210.1253,-207.4443 211.0627,-202.5329 205.7051,-206.6007 212,-197.6216 212,-197.6216"/>
</g>
<!-- C -->
<g id="node3" class="node">
<title>C</title>
<polygon fill="none" stroke="#a020f0" points="59,-161.6216 59,-197.6216 121,-197.6216 121,-161.6216 59,-161.6216"/>
<text text-anchor="middle" x="68.75" y="-175.4216" font-family="Times,serif" font-size="14.00" fill="#000000"> </text>
<polyline fill="none" stroke="#a020f0" points="78.5,-161.6216 78.5,-197.6216 "/>
<text text-anchor="middle" x="90" y="-175.4216" font-family="Times,serif" font-size="14.00" fill="#000000">3</text>
<polyline fill="none" stroke="#a020f0" points="101.5,-161.6216 101.5,-197.6216 "/>
<text text-anchor="middle" x="111.25" y="-175.4216" font-family="Times,serif" font-size="14.00" fill="#000000"> </text>
</g>
<!-- A&#45;&gt;C -->
<g id="edge2" class="edge">
<title>A:B-&gt;C:data</title>
<path fill="none" stroke="#0000ff" d="M126.4186,-245.2283C124.6372,-241.7646 122.3625,-237.6366 120,-234.1216 110.5744,-220.0975 96.8925,-218.6059 91.9075,-207.6168"/>
<ellipse fill="#0000ff" stroke="#0000ff" cx="128.2561" cy="-249.0217" rx="4" ry="4"/>
<polygon fill="#0000ff" stroke="#0000ff" points="90,-197.6216 96.2949,-206.6007 90.9373,-202.5329 91.8747,-207.4443 91.8747,-207.4443 91.8747,-207.4443 90.9373,-202.5329 87.4544,-208.2879 90,-197.6216 90,-197.6216"/>
</g>
<!-- D -->
<g id="node4" class="node">
<title>D</title>
<polygon fill="none" stroke="#a020f0" points="240,-88.6216 240,-124.6216 302,-124.6216 302,-88.6216 240,-88.6216"/>
<text text-anchor="middle" x="249.75" y="-102.4216" font-family="Times,serif" font-size="14.00" fill="#000000"> </text>
<polyline fill="none" stroke="#a020f0" points="259.5,-88.6216 259.5,-124.6216 "/>
<text text-anchor="middle" x="271" y="-102.4216" font-family="Times,serif" font-size="14.00" fill="#000000">4</text>
<polyline fill="none" stroke="#a020f0" points="282.5,-88.6216 282.5,-124.6216 "/>
<text text-anchor="middle" x="292.25" y="-102.4216" font-family="Times,serif" font-size="14.00" fill="#000000"> </text>
</g>
<!-- B&#45;&gt;D -->
<g id="edge3" class="edge">
<title>B:D-&gt;D:data</title>
<path fill="none" stroke="#0000ff" d="M236.6347,-172.2635C238.4278,-168.8074 240.6969,-164.6758 243,-161.1216 251.86,-147.4486 264.3796,-145.3722 269.1002,-134.7469"/>
<ellipse fill="#0000ff" stroke="#0000ff" cx="234.7716" cy="-176.0352" rx="4" ry="4"/>
<polygon fill="#0000ff" stroke="#0000ff" points="271,-124.6216 273.5786,-135.2799 270.0779,-129.5358 269.1558,-134.4501 269.1558,-134.4501 269.1558,-134.4501 270.0779,-129.5358 264.733,-133.6202 271,-124.6216 271,-124.6216"/>
</g>
<!-- E -->
<g id="node5" class="node">
<title>E</title>
<polygon fill="none" stroke="#a020f0" points="160,-88.6216 160,-124.6216 222,-124.6216 222,-88.6216 160,-88.6216"/>
<text text-anchor="middle" x="169.75" y="-102.4216" font-family="Times,serif" font-size="14.00" fill="#000000"> </text>
<polyline fill="none" stroke="#a020f0" points="179.5,-88.6216 179.5,-124.6216 "/>
<text text-anchor="middle" x="191" y="-102.4216" font-family="Times,serif" font-size="14.00" fill="#000000">5</text>
<polyline fill="none" stroke="#a020f0" points="202.5,-88.6216 202.5,-124.6216 "/>
<text text-anchor="middle" x="212.25" y="-102.4216" font-family="Times,serif" font-size="14.00" fill="#000000"> </text>
</g>
<!-- B&#45;&gt;E -->
<g id="edge4" class="edge">
<title>B:E-&gt;E:data</title>
<path fill="none" stroke="#0000ff" d="M191,-171.4216C191,-162.857 191,-148.7742 191,-134.999"/>
<ellipse fill="#0000ff" stroke="#0000ff" cx="191" cy="-175.6216" rx="4" ry="4"/>
<polygon fill="#0000ff" stroke="#0000ff" points="191,-124.6216 195.5001,-134.6215 191,-129.6216 191.0001,-134.6216 191.0001,-134.6216 191.0001,-134.6216 191,-129.6216 186.5001,-134.6216 191,-124.6216 191,-124.6216"/>
</g>
<!-- F -->
<g id="node6" class="node">
<title>F</title>
<polygon fill="none" stroke="#a020f0" points="80,-88.6216 80,-124.6216 142,-124.6216 142,-88.6216 80,-88.6216"/>
<text text-anchor="middle" x="89.75" y="-102.4216" font-family="Times,serif" font-size="14.00" fill="#000000"> </text>
<polyline fill="none" stroke="#a020f0" points="99.5,-88.6216 99.5,-124.6216 "/>
<text text-anchor="middle" x="111" y="-102.4216" font-family="Times,serif" font-size="14.00" fill="#000000">6</text>
<polyline fill="none" stroke="#a020f0" points="122.5,-88.6216 122.5,-124.6216 "/>
<text text-anchor="middle" x="132.25" y="-102.4216" font-family="Times,serif" font-size="14.00" fill="#000000"> </text>
</g>
<!-- C&#45;&gt;F -->
<g id="edge5" class="edge">
<title>C:F-&gt;F:data</title>
<path fill="none" stroke="#0000ff" d="M111,-171.4216C111,-162.857 111,-148.7742 111,-134.999"/>
<ellipse fill="#0000ff" stroke="#0000ff" cx="111" cy="-175.6216" rx="4" ry="4"/>
<polygon fill="#0000ff" stroke="#0000ff" points="111,-124.6216 115.5001,-134.6215 111,-129.6216 111.0001,-134.6216 111.0001,-134.6216 111.0001,-134.6216 111,-129.6216 106.5001,-134.6216 111,-124.6216 111,-124.6216"/>
</g>
<!-- G -->
<g id="node7" class="node">
<title>G</title>
<polygon fill="none" stroke="#a020f0" points="0,-88.6216 0,-124.6216 62,-124.6216 62,-88.6216 0,-88.6216"/>
<text text-anchor="middle" x="9.75" y="-102.4216" font-family="Times,serif" font-size="14.00" fill="#000000"> </text>
<polyline fill="none" stroke="#a020f0" points="19.5,-88.6216 19.5,-124.6216 "/>
<text text-anchor="middle" x="31" y="-102.4216" font-family="Times,serif" font-size="14.00" fill="#000000">7</text>
<polyline fill="none" stroke="#a020f0" points="42.5,-88.6216 42.5,-124.6216 "/>
<text text-anchor="middle" x="52.25" y="-102.4216" font-family="Times,serif" font-size="14.00" fill="#000000"> </text>
</g>
<!-- C&#45;&gt;G -->
<g id="edge6" class="edge">
<title>C:G-&gt;G:data</title>
<path fill="none" stroke="#0000ff" d="M65.3653,-172.2635C63.5722,-168.8074 61.3031,-164.6758 59,-161.1216 50.14,-147.4486 37.6204,-145.3722 32.8998,-134.7469"/>
<ellipse fill="#0000ff" stroke="#0000ff" cx="67.2284" cy="-176.0352" rx="4" ry="4"/>
<polygon fill="#0000ff" stroke="#0000ff" points="31,-124.6216 37.267,-133.6202 31.9221,-129.5358 32.8442,-134.4501 32.8442,-134.4501 32.8442,-134.4501 31.9221,-129.5358 28.4214,-135.2799 31,-124.6216 31,-124.6216"/>
</g>
<!-- null -->
<g id="node8" class="node">
<title>null</title>
<ellipse fill="none" stroke="#ffffff" cx="151" cy="-26.0608" rx="26.1217" ry="26.1217"/>
<text text-anchor="middle" x="151" y="-21.8608" font-family="Times,serif" font-size="14.00" fill="#000000">null</text>
</g>
<!-- D&#45;&gt;null -->
<g id="edge7" class="edge">
<title>D:null-&gt;null</title>
<path fill="none" stroke="#0000ff" d="M289.2236,-99.0579C287.5751,-95.3895 285.1792,-91.1362 282,-88.1216 254.7197,-62.2534 214.6695,-45.4426 186.0425,-35.927"/>
<ellipse fill="#0000ff" stroke="#0000ff" cx="290.6216" cy="-102.8665" rx="4" ry="4"/>
<polygon fill="#0000ff" stroke="#0000ff" points="176.4328,-32.8626 187.3274,-31.6135 181.1965,-34.3817 185.9602,-35.9008 185.9602,-35.9008 185.9602,-35.9008 181.1965,-34.3817 184.593,-40.1881 176.4328,-32.8626 176.4328,-32.8626"/>
</g>
<!-- D&#45;&gt;null -->
<g id="edge8" class="edge">
<title>D:null-&gt;null</title>
<path fill="none" stroke="#0000ff" d="M246.8293,-98.9094C245.1379,-95.3758 242.8202,-91.2811 240,-88.1216 223.9038,-70.0887 201.5826,-54.5409 183.3211,-43.5176"/>
<ellipse fill="#0000ff" stroke="#0000ff" cx="248.479" cy="-102.922" rx="4" ry="4"/>
<polygon fill="#0000ff" stroke="#0000ff" points="174.4626,-38.3278 185.3657,-39.5001 178.7768,-40.8553 183.0909,-43.3828 183.0909,-43.3828 183.0909,-43.3828 178.7768,-40.8553 180.8162,-47.2655 174.4626,-38.3278 174.4626,-38.3278"/>
</g>
<!-- E&#45;&gt;null -->
<g id="edge9" class="edge">
<title>E:null-&gt;null</title>
<path fill="none" stroke="#0000ff" d="M208.4184,-99.2284C206.637,-95.7647 204.3623,-91.6367 202,-88.1216 193.9417,-76.1308 184.0538,-63.6819 175.1367,-53.1091"/>
<ellipse fill="#0000ff" stroke="#0000ff" cx="210.2561" cy="-103.0217" rx="4" ry="4"/>
<polygon fill="#0000ff" stroke="#0000ff" points="168.5533,-45.4284 178.4779,-50.0925 171.8072,-49.2247 175.0612,-53.0211 175.0612,-53.0211 175.0612,-53.0211 171.8072,-49.2247 171.6445,-55.9496 168.5533,-45.4284 168.5533,-45.4284"/>
</g>
<!-- E&#45;&gt;null -->
<g id="edge10" class="edge">
<title>E:null-&gt;null</title>
<path fill="none" stroke="#0000ff" d="M168.1087,-98.6026C166.0437,-89.8469 162.5945,-75.2221 159.3319,-61.3886"/>
<ellipse fill="#0000ff" stroke="#0000ff" cx="169.0818" cy="-102.7284" rx="4" ry="4"/>
<polygon fill="#0000ff" stroke="#0000ff" points="157.0117,-51.5507 163.6871,-60.2507 158.1595,-56.4172 159.3073,-61.2837 159.3073,-61.2837 159.3073,-61.2837 158.1595,-56.4172 154.9274,-62.3167 157.0117,-51.5507 157.0117,-51.5507"/>
</g>
<!-- F&#45;&gt;null -->
<g id="edge11" class="edge">
<title>F:null-&gt;null</title>
<path fill="none" stroke="#0000ff" d="M133.8913,-98.6026C135.9563,-89.8469 139.4055,-75.2221 142.6681,-61.3886"/>
<ellipse fill="#0000ff" stroke="#0000ff" cx="132.9182" cy="-102.7284" rx="4" ry="4"/>
<polygon fill="#0000ff" stroke="#0000ff" points="144.9883,-51.5507 147.0726,-62.3167 143.8405,-56.4172 142.6927,-61.2837 142.6927,-61.2837 142.6927,-61.2837 143.8405,-56.4172 138.3129,-60.2507 144.9883,-51.5507 144.9883,-51.5507"/>
</g>
<!-- F&#45;&gt;null -->
<g id="edge12" class="edge">
<title>F:null-&gt;null</title>
<path fill="none" stroke="#0000ff" d="M93.5816,-99.2284C95.363,-95.7647 97.6377,-91.6367 100,-88.1216 108.0583,-76.1308 117.9462,-63.6819 126.8633,-53.1091"/>
<ellipse fill="#0000ff" stroke="#0000ff" cx="91.7439" cy="-103.0217" rx="4" ry="4"/>
<polygon fill="#0000ff" stroke="#0000ff" points="133.4467,-45.4284 130.3555,-55.9496 130.1928,-49.2247 126.9388,-53.0211 126.9388,-53.0211 126.9388,-53.0211 130.1928,-49.2247 123.5221,-50.0925 133.4467,-45.4284 133.4467,-45.4284"/>
</g>
<!-- G&#45;&gt;null -->
<g id="edge13" class="edge">
<title>G:null-&gt;null</title>
<path fill="none" stroke="#0000ff" d="M55.1707,-98.9094C56.8621,-95.3758 59.1798,-91.2811 62,-88.1216 78.0962,-70.0887 100.4174,-54.5409 118.6789,-43.5176"/>
<ellipse fill="#0000ff" stroke="#0000ff" cx="53.521" cy="-102.922" rx="4" ry="4"/>
<polygon fill="#0000ff" stroke="#0000ff" points="127.5374,-38.3278 121.1838,-47.2655 123.2232,-40.8553 118.9091,-43.3828 118.9091,-43.3828 118.9091,-43.3828 123.2232,-40.8553 116.6343,-39.5001 127.5374,-38.3278 127.5374,-38.3278"/>
</g>
<!-- G&#45;&gt;null -->
<g id="edge14" class="edge">
<title>G:null-&gt;null</title>
<path fill="none" stroke="#0000ff" d="M12.7764,-99.0579C14.4249,-95.3895 16.8208,-91.1362 20,-88.1216 47.2803,-62.2534 87.3305,-45.4426 115.9575,-35.927"/>
<ellipse fill="#0000ff" stroke="#0000ff" cx="11.3784" cy="-102.8665" rx="4" ry="4"/>
<polygon fill="#0000ff" stroke="#0000ff" points="125.5672,-32.8626 117.407,-40.1881 120.8035,-34.3817 116.0398,-35.9008 116.0398,-35.9008 116.0398,-35.9008 120.8035,-34.3817 114.6726,-31.6135 125.5672,-32.8626 125.5672,-32.8626"/>
</g>
</g>
</svg>